# xmcd CD database file
# Copyright (C) 1993-1998 Ti Kan
#
# Track frame offsets:
# 183
# 20573
# 39723
# 61148
# 81608
# 100675
# 128163
# 146828
# 170098
# 186998
#
# Disc length: 2681 seconds
# Revision: 0
# Processed by: cddbd v1.4b41PL1 Copyright (c) Steve Scherf et al.
# Submitted via: CDSpectrumPro v3.4.340
#
DISCID=910a770a
DTITLE=Stylistics - Love Talk
DYEAR=1900
DGENRE=
TTITLE0=Love Talk
TTITLE1=Me-U=Blue
TTITLE2=Hang Your Teardrops Up To Dry
TTITLE3=I Just Don't Know What To Do
TTITLE4=I Don't Need This
TTITLE5=Hits Medley
TTITLE6=Always On My Mind
TTITLE7=Let Me Show You What Love Is
TTITLE8=You're My Woman, You're My Lady
TTITLE9=Goin' Out Of My Head-Can't Take My Eyes Off You
EXTD=
EXTT0=
EXTT1=
EXTT2=
EXTT3=
EXTT4=
EXTT5=Betcha, By Golly, Wow - You Are Everthing - I'm Stone In Love With You - Yo
EXTT5=u Make Me Feel Brand New
EXTT6=
EXTT7=
EXTT8=
EXTT9=
PLAYORDER=
